<svg width="48" height="48" viewBox="0 0 48 48" fill="none" xmlns="http://www.w3.org/2000/svg">
<rect width="48" height="48" fill="#3F4159"/>
<path d="M28.1494 19.9869C29.7407 19.9869 31.2668 20.6191 32.3921 21.7443C33.5173 22.8695 34.1494 24.3956 34.1494 25.9869V32.9869H30.1494V25.9869C30.1494 25.4565 29.9387 24.9478 29.5636 24.5727C29.1886 24.1977 28.6798 23.9869 28.1494 23.9869C27.619 23.9869 27.1103 24.1977 26.7352 24.5727C26.3601 24.9478 26.1494 25.4565 26.1494 25.9869V32.9869H22.1494V25.9869C22.1494 24.3956 22.7816 22.8695 23.9068 21.7443C25.032 20.6191 26.5581 19.9869 28.1494 19.9869V19.9869Z" stroke="#DBE6FD" stroke-width="2" stroke-linecap="round" stroke-linejoin="round"/>
<path d="M18.1494 20.9869H14.1494V32.9869H18.1494V20.9869Z" stroke="#DBE6FD" stroke-width="2" stroke-linecap="round" stroke-linejoin="round"/>
<path d="M16.1494 17.9869C17.254 17.9869 18.1494 17.0915 18.1494 15.9869C18.1494 14.8824 17.254 13.9869 16.1494 13.9869C15.0448 13.9869 14.1494 14.8824 14.1494 15.9869C14.1494 17.0915 15.0448 17.9869 16.1494 17.9869Z" stroke="#DBE6FD" stroke-width="2" stroke-linecap="round" stroke-linejoin="round"/>
</svg>
